<?xml version="1.0" encoding="iso-8859-1"?>
<!-- Generator: Adobe Illustrator 19.0.0, SVG Export Plug-In . SVG Version: 6.00 Build 0)  -->
<svg version="1.1" id="Layer_1" xmlns="http://www.w3.org/2000/svg" xmlns:xlink="http://www.w3.org/1999/xlink" x="0px" y="0px"
	 viewBox="0 0 512 512" style="enable-background:new 0 0 512 512;" xml:space="preserve">
<polygon style="fill:#D8D8DA;" points="18.285,176.821 146.286,166.263 274.285,324.623 274.285,472.424 18.285,324.623 "/>
<polygon style="fill:#003169;" points="229.107,446.264 63.465,350.63 63.465,202.901 229.107,298.534 "/>
<polygon style="fill:#013F8A;" points="54.858,197.936 237.715,303.508 237.715,288.428 54.858,182.856 "/>
<polygon style="fill:#C6C5CB;" points="274.285,472.424 493.715,345.737 493.715,197.936 274.285,324.623 "/>
<polygon style="fill:#003169;" points="146.286,166.263 365.715,39.576 512,220.545 292.572,347.232 "/>
<polygon style="fill:#013F8A;" points="146.286,166.263 0,178.394 219.429,51.707 365.715,39.576 "/>
<polygon style="fill:#ACABB1;" points="73.143,356.294 73.143,208.492 219.429,292.95 219.429,440.752 "/>
<path style="fill:#898890;" d="M73.143,312.825l146.286,84.458v2.414L73.143,315.239C73.143,315.239,73.143,312.825,73.143,312.825z
	 M219.429,418.381L73.143,333.923v2.414l146.286,84.458V418.381z M73.143,294.141L219.429,378.6v-2.414L73.143,291.728
	C73.143,291.728,73.143,294.141,73.143,294.141z M73.143,252.409l146.286,84.458v-2.414L73.143,249.995
	C73.143,249.995,73.143,252.409,73.143,252.409z M73.143,229.362v2.414l146.286,84.458v-2.414L73.143,229.362z M73.143,273.043
	l146.286,84.458v-2.414L73.143,270.629C73.143,270.629,73.143,273.043,73.143,273.043z"/>
<g>
	<polygon style="fill:#2487FF;" points="310.887,345.754 347.428,324.623 347.428,366.852 310.887,388.049 	"/>
	<polygon style="fill:#2487FF;" points="365.743,314.082 402.286,292.95 402.286,335.179 365.743,356.378 	"/>
	<polygon style="fill:#2487FF;" points="420.601,282.411 457.144,261.279 457.144,303.508 420.601,324.706 	"/>
</g>
<g>
</g>
<g>
</g>
<g>
</g>
<g>
</g>
<g>
</g>
<g>
</g>
<g>
</g>
<g>
</g>
<g>
</g>
<g>
</g>
<g>
</g>
<g>
</g>
<g>
</g>
<g>
</g>
<g>
</g>
</svg>
