<?xml version="1.0" encoding="iso-8859-1"?>
<!-- Generator: Adobe Illustrator 19.0.0, SVG Export Plug-In . SVG Version: 6.00 Build 0)  -->
<svg version="1.1" id="Layer_1" xmlns="http://www.w3.org/2000/svg" xmlns:xlink="http://www.w3.org/1999/xlink" x="0px" y="0px"
	 viewBox="0 0 512 512" style="enable-background:new 0 0 512 512;" xml:space="preserve">
<polygon style="fill:#898890;" points="13.837,232.032 110.702,224.043 207.567,343.882 207.567,455.732 13.837,343.882 "/>
<polyline style="fill:#77767E;" points="207.567,455.732 498.163,287.958 498.163,176.107 207.567,343.882 "/>
<polygon style="fill:#ACABB1;" points="110.702,224.043 401.298,56.268 512,193.218 221.406,360.992 "/>
<g>
	<polygon style="fill:#D8D8DA;" points="110.702,224.043 0,233.224 290.595,65.448 401.298,56.268 	"/>
	<polygon style="fill:#D8D8DA;" points="27.676,351.871 27.676,271.978 166.054,351.871 166.054,431.764 	"/>
</g>
<polygon style="fill:#3E3D43;" points="179.892,439.754 179.892,407.797 193.73,415.786 193.818,447.728 "/>
<g>
	<polygon style="fill:#ACABB1;" points="166.054,416.351 166.054,415.145 27.937,335.403 27.676,335.252 27.676,336.458 
		165.793,416.201 	"/>
	<polygon style="fill:#ACABB1;" points="27.676,319.287 27.676,320.492 165.793,400.234 166.054,400.385 166.054,399.18 
		27.937,319.437 	"/>
	<polygon style="fill:#ACABB1;" points="166.054,368.453 166.054,367.247 27.937,287.505 27.676,287.354 27.676,288.56 
		165.793,368.302 	"/>
	<polygon style="fill:#ACABB1;" points="27.676,303.321 27.676,304.526 165.793,384.268 166.054,384.418 166.054,383.213 
		27.937,303.471 	"/>
	<polygon style="fill:#ACABB1;" points="345.946,375.84 345.946,295.947 221.392,367.858 221.392,447.751 	"/>
</g>
<g>
	<polygon style="fill:#898890;" points="345.946,344.46 345.946,343.254 221.392,415.164 221.392,416.371 	"/>
	<polygon style="fill:#898890;" points="221.392,399.199 221.392,400.405 345.946,328.494 345.946,327.288 	"/>
	<polygon style="fill:#898890;" points="221.392,383.234 221.392,384.439 345.946,312.528 345.946,311.321 	"/>
	<polygon style="fill:#898890;" points="345.946,360.426 345.946,359.22 221.392,431.131 221.392,432.337 	"/>
</g>
<polygon style="fill:#ACABB1;" points="484.325,295.918 484.325,216.025 359.771,287.936 359.771,367.829 "/>
<g>
	<polygon style="fill:#898890;" points="359.771,319.277 359.771,320.483 484.325,248.572 484.325,247.366 	"/>
	<polygon style="fill:#898890;" points="484.325,280.504 484.325,279.298 359.771,351.21 359.771,352.416 	"/>
	<polygon style="fill:#898890;" points="484.325,264.538 484.325,263.332 359.771,335.243 359.771,336.45 	"/>
	<polygon style="fill:#898890;" points="359.771,303.311 359.771,304.517 484.325,232.607 484.325,231.4 	"/>
	<polygon style="fill:#898890;" points="194.268,175.671 194.038,175.387 84.43,184.478 82.364,185.67 82.394,186.036 
		193.422,176.827 303.826,313.407 305.04,312.707 	"/>
	<polygon style="fill:#898890;" points="221.943,159.693 221.714,159.409 112.105,168.499 110.04,169.691 110.07,170.057 
		221.098,160.849 331.501,297.429 332.715,296.728 	"/>
	<polygon style="fill:#898890;" points="180.43,183.661 180.2,183.376 70.592,192.467 68.527,193.659 68.557,194.025 
		179.584,184.816 289.988,321.396 291.201,320.696 	"/>
	<polygon style="fill:#898890;" points="235.781,151.704 235.552,151.42 125.945,160.509 123.877,161.702 123.908,162.066 
		234.935,152.859 345.34,289.439 346.553,288.738 	"/>
	<polygon style="fill:#898890;" points="152.754,199.641 152.524,199.356 42.917,208.445 40.851,209.638 40.881,210.003 
		151.909,200.797 262.313,337.375 263.526,336.675 	"/>
	<polygon style="fill:#898890;" points="124.849,215.334 15.242,224.424 13.175,225.617 13.205,225.982 124.233,216.775 
		234.637,353.353 235.85,352.653 125.078,215.619 	"/>
	<polygon style="fill:#898890;" points="138.916,207.63 138.687,207.345 29.079,216.434 27.012,217.628 27.044,217.992 
		138.07,208.786 248.475,345.364 249.688,344.664 	"/>
	<polygon style="fill:#898890;" points="166.592,191.65 166.362,191.366 56.754,200.456 54.688,201.649 54.719,202.014 
		165.746,192.805 276.151,329.385 277.364,328.685 	"/>
	<polygon style="fill:#898890;" points="249.619,143.715 249.389,143.43 139.783,152.52 137.716,153.713 137.746,154.077 
		248.774,144.87 359.177,281.45 360.39,280.749 	"/>
	<polygon style="fill:#898890;" points="208.106,167.682 207.876,167.398 98.267,176.488 96.203,177.681 96.233,178.046 
		207.259,168.838 317.664,305.418 318.877,304.718 	"/>
	<polygon style="fill:#898890;" points="360.322,79.801 360.092,79.516 250.484,88.606 248.418,89.798 248.449,90.163 
		359.476,80.957 469.881,217.536 471.094,216.835 	"/>
	<polygon style="fill:#898890;" points="346.484,87.79 346.254,87.505 236.647,96.595 234.581,97.788 234.611,98.152 
		345.639,88.946 456.042,225.525 457.255,224.825 	"/>
	<polygon style="fill:#898890;" points="332.646,95.779 332.417,95.495 222.809,104.585 220.742,105.777 220.773,106.142 
		331.8,96.935 442.205,233.514 443.418,232.814 	"/>
	<polygon style="fill:#898890;" points="387.997,63.822 387.768,63.536 278.16,72.628 276.094,73.82 276.124,74.185 387.152,64.977 
		497.556,201.557 498.77,200.856 	"/>
	<polygon style="fill:#898890;" points="374.16,71.811 373.93,71.526 264.321,80.617 262.257,81.809 262.287,82.174 373.313,72.966 
		483.718,209.546 484.931,208.845 	"/>
	<polygon style="fill:#898890;" points="318.808,103.769 318.578,103.484 208.971,112.574 206.905,113.767 206.935,114.131 
		317.963,104.924 428.367,241.503 429.581,240.803 	"/>
	<polygon style="fill:#898890;" points="263.457,135.725 263.227,135.441 153.62,144.531 151.553,145.724 151.584,146.087 
		262.611,136.881 373.016,273.461 374.229,272.76 	"/>
	<polygon style="fill:#898890;" points="291.132,119.747 290.903,119.463 181.296,128.552 179.229,129.745 179.259,130.109 
		290.287,120.903 400.692,257.482 401.905,256.782 	"/>
	<polygon style="fill:#898890;" points="277.295,127.736 277.065,127.452 167.459,136.541 165.392,137.735 165.422,138.098 
		276.448,128.892 386.853,265.472 388.066,264.771 	"/>
	<polygon style="fill:#898890;" points="304.971,111.758 304.741,111.474 195.133,120.563 193.067,121.756 193.098,122.12 
		304.124,112.913 414.529,249.492 415.743,248.792 	"/>
</g>
<g>
	<polygon style="fill:#2487FF;" points="411.62,121.895 390.537,133.732 410.611,158.564 431.382,146.346 	"/>
	<polygon style="fill:#2487FF;" points="380.316,139.968 359.234,151.804 379.307,176.637 400.079,164.418 	"/>
</g>
<g>
</g>
<g>
</g>
<g>
</g>
<g>
</g>
<g>
</g>
<g>
</g>
<g>
</g>
<g>
</g>
<g>
</g>
<g>
</g>
<g>
</g>
<g>
</g>
<g>
</g>
<g>
</g>
<g>
</g>
</svg>
