<?xml version="1.0" encoding="iso-8859-1"?>
<!-- Generator: Adobe Illustrator 19.0.0, SVG Export Plug-In . SVG Version: 6.00 Build 0)  -->
<svg version="1.1" id="Layer_1" xmlns="http://www.w3.org/2000/svg" xmlns:xlink="http://www.w3.org/1999/xlink" x="0px" y="0px"
	 viewBox="0 0 512 512" style="enable-background:new 0 0 512 512;" xml:space="preserve">
<polygon style="fill:#AD2201;" points="253.895,36.177 253.895,138.139 342.196,189.121 342.197,87.158 "/>
<g>
	<polygon style="fill:#57565C;" points="175.405,421.305 195.027,409.977 214.65,421.367 214.65,478.013 195.027,489.342 
		175.405,478.013 	"/>
	<polygon style="fill:#57565C;" points="169.803,478.011 195.027,463.447 220.252,478.09 220.252,497.436 195.027,512 
		169.803,497.436 	"/>
</g>
<polygon style="fill:#3E3D43;" points="169.803,478.011 169.803,497.436 195.027,512 195.027,492.575 "/>
<polygon style="fill:#2E2E30;" points="195.027,492.575 220.252,478.09 220.252,497.436 195.027,512 "/>
<polygon style="fill:#3E3D43;" points="175.405,421.305 175.405,478.013 195.027,489.342 195.027,432.635 "/>
<polygon style="fill:#2E2E30;" points="195.027,432.635 214.65,421.367 214.65,478.013 195.027,489.342 "/>
<path style="fill:#898890;" d="M200.543,16.062v-0.005h-0.001c-0.002-0.815-0.537-1.631-1.606-2.252
	c-2.145-1.246-5.66-1.248-7.811-0.006c-1.075,0.621-1.613,1.439-1.614,2.257l0,0v405.373l0,0c-0.001,0.818,0.536,1.635,1.609,2.255
	c2.148,1.24,5.662,1.242,7.811,0.006c1.077-0.621,1.614-1.441,1.612-2.261l0,0V16.066C200.543,16.065,200.543,16.063,200.543,16.062
	z"/>
<path style="fill:#ACABB1;" d="M191.123,18.324c-2.148-1.24-2.148-3.275,0-4.52c2.148-1.247,5.662-1.246,7.809,0.001
	c2.147,1.247,2.147,3.281,0,4.52C196.785,19.564,193.27,19.564,191.123,18.324z"/>
<circle style="fill:#898890;" cx="195.027" cy="7.604" r="7.604"/>
<polygon style="fill:#CD2A01;" points="195.027,24.847 195.027,126.81 263.707,166.462 263.707,64.5 "/>
<polygon style="fill:#891D00;" points="253.895,36.177 263.707,64.5 253.895,58.835 "/>
<g>
</g>
<g>
</g>
<g>
</g>
<g>
</g>
<g>
</g>
<g>
</g>
<g>
</g>
<g>
</g>
<g>
</g>
<g>
</g>
<g>
</g>
<g>
</g>
<g>
</g>
<g>
</g>
<g>
</g>
</svg>
